<svg id="svg2" xmlns="http://www.w3.org/2000/svg" viewBox="0 0 785 320">
  <g>
    <g id="g3055">
      <path id="path2998" d="M18.08,232.87V183.68h-16l3.63-14.76H46.37v14.76H32.84v49.19Z" fill="#fff"/>
      <path id="path3000" d="M51.29,232.87v-64h12.3v20.66s3.53-5.9,12.3-5.9c5.25,0,13.51,3.31,13.51,12.29v36.9H77.1V203.35c0-4.53-1-7.22-6-7.22a7.51,7.51,0,0,0-7.49,7.22v29.52Z" fill="#fff"/>
      <path id="path3002" d="M117.71,183.71c-18.31,0-24.6,14.36-24.6,24.6,0,15.37,11.42,24.59,24.6,24.59a33.79,33.79,0,0,0,21.13-7.38l-7.07-10.45s-6.11,5.61-13.45,5.61c-5.69,0-8.46-3.15-8.46-3.15l31.21-19.45S134.31,183.71,117.71,183.71Zm-1.77,12.07a7.62,7.62,0,0,1,6.61,2.76l-14.68,9.77s-3.4-6.16,3.22-10.61A10.85,10.85,0,0,1,115.94,195.78Z" fill="#fff"/>
    </g>
    <g id="g3018">
      <path id="path3006" d="M56.39,280.79,97,231.38s20.4,23.28,56.66,23.28c32.69,0,45.13-19.73,45.13-31.08,0-50-138.91-21.45-138.91-128.37,0-50.64,41-93.78,108.06-93.78,52.51,0,87.09,23.87,96.85,33.16l-38.43,49s-21.63-22.84-52.71-22.84c-20.54,0-38.44,11.34-38.44,27,0,54.57,137.71,17.68,137.71,129.8,0,71.35-54.31,101-115.09,101-64.69,0-101.46-37.78-101.46-37.78Z" fill="#fff"/>
      <path id="path3008" d="M344,314H272.67V272.23s12.3-23,12.3-54.12c0-33.14-12.3-51.52-12.3-51.52V55.77H344Z" fill="#fff"/>
      <path id="path3010" d="M610.64,298.82l2.8,15.22H541.27l-11.68-95.93L512.15,314H447.36L431,218.55,417.8,314h-70L395.44,28.71h59.92l25.47,133.88L505.48,55.77h60.35l38.65,209.67L629,232.92s16.5,22.09,46.12,21.74c16.38,0,29.87-8.11,29.87-18.89C704.94,201,594,221.89,594,131c0-57.55,50.44-86.31,105-86.31,50.43,0,83.9,29,83.9,29l-39.76,48.53s-18.58-13.61-47-13.61C680,108.61,665,115.3,665,127.5c0,32.62,110.47,14.59,110.47,103.44,0,57.77-44.7,85.65-97.3,85.65-44.56,0-67.5-17.77-67.5-17.77Z" fill="#fff"/>
    </g>
  </g>
</svg>
