<svg xmlns="http://www.w3.org/2000/svg" viewBox="0 0 107 107">
  <g id="Layer_2" data-name="Layer 2">
    <g id="Layer_10" data-name="Layer 10">
      <path d="M89.73,99a6.05,6.05,0,0,1-6.52,5.58,7.37,7.37,0,0,1-2.79-.89S63.21,92,62.19,91.18A12.26,12.26,0,0,1,58,85.55L54.28,72.82,52.72,106H17.54l.85-13.33H10.14A9.11,9.11,0,0,1,1,83.74a8.35,8.35,0,0,1,.64-3.53S11,59.11,12.81,55.68c2.61-5.15,7.18-7.37,13.6-7.18h17L7.88,74,4.71,81.4a4.79,4.79,0,0,0-.45,2.15A5.8,5.8,0,0,0,10,89.33H39.38a9.2,9.2,0,0,0,9.28-9,9.07,9.07,0,0,0-7.34-9l8.6-22.85h2.15a10,10,0,0,1,9.56,6.9L68.4,79.85a3.84,3.84,0,0,0,1.14,1.58c.69.51,17.85,12.28,17.85,12.28A6,6,0,0,1,89.73,99ZM37.61,44.12a13.5,13.5,0,1,0-12.4-14.5A13.47,13.47,0,0,0,37.61,44.12Zm7.76,35.94a5.78,5.78,0,0,0-5.15-5.72L36,85.92l3.56-.07A5.81,5.81,0,0,0,45.37,80.06ZM92.67,8.92V1H76.43V8.92H63.1V41H106V8.92ZM79.76,4.33h9.58V8.92H79.76Zm4.73,32.53A11.83,11.83,0,1,1,96.31,25,11.83,11.83,0,0,1,84.49,36.86Zm7.77-9.61H86.84v5.42H82.26V27.25H76.85V22.67h5.41V17.25h4.58v5.42h5.42Z" fill="none" stroke="#633cff" stroke-miterlimit="10" stroke-width="2"/>
    </g>
  </g>
</svg>
