<svg xmlns="http://www.w3.org/2000/svg" viewBox="0 0 113.51 93">
  <g id="Layer_2" data-name="Layer 2">
    <g id="Layer_13" data-name="Layer 13">
      <g>
        <path d="M78.71,31.33H34.8a2,2,0,0,0-1.82,2c-.13,1.4.71,2.59,1.75,2.59H78.64a2,2,0,0,0,1.82-2c.13-1.4-.7-2.59-1.75-2.59Z" fill="none" stroke="#633cff" stroke-miterlimit="10" stroke-width="2"/>
        <path d="M16.36,41.75H9.91a2,2,0,0,0-1.81,2c-.13,1.4.7,2.59,1.75,2.59h6.52c3.21,0,5.92,2.86,6.7,6.74H10.36a2,2,0,0,0-1.81,2c-.13,1.4.7,2.58,1.75,2.58H25.06a2.09,2.09,0,0,0,1.76-2.3C26.82,47.86,22.13,41.75,16.36,41.75Z" fill="none" stroke="#633cff" stroke-miterlimit="10" stroke-width="2"/>
        <path d="M97.08,46.35h6.45a2,2,0,0,0,1.82-2c.13-1.4-.71-2.59-1.75-2.59H97.08c-5.76,0-10.45,6.11-10.46,13.63a2.09,2.09,0,0,0,1.76,2.3h14.7a2,2,0,0,0,1.81-2c.13-1.39-.7-2.58-1.74-2.58H90.37C91.16,49.21,93.86,46.35,97.08,46.35Z" fill="none" stroke="#633cff" stroke-miterlimit="10" stroke-width="2"/>
        <path d="M108.91,31.71c-2.48-3.38-5.84-5.24-9.47-5.23a1.44,1.44,0,0,0-.46.08l-5.67,2.05L85,7.68C83.46,3.93,79.76,1,76.52,1H37c-3.24,0-6.95,2.93-8.45,6.68L20.2,28.61l-5.67-2.05a1.5,1.5,0,0,0-.47-.08A11.73,11.73,0,0,0,4.6,31.71,20.1,20.1,0,0,0,1,44.27L2.29,77.56a2.06,2.06,0,0,0,1.77,2.18h.71v10A2.08,2.08,0,0,0,6.53,92H25.09a2.08,2.08,0,0,0,1.76-2.3v-3a2.25,2.25,0,0,0-1.54-2.37c-1.07-.17-2,.92-2,2.28v.84h-15V79.74h97.05V87.4h-15v-.75a2.25,2.25,0,0,0-1.54-2.37c-1.07-.17-2,.92-2,2.28V89.7A2.09,2.09,0,0,0,88.54,92h18.57a2.09,2.09,0,0,0,1.76-2.3v-10h.59a2.05,2.05,0,0,0,1.76-2.18l1.28-33.3a20.09,20.09,0,0,0-3.59-12.55ZM109,44l-1.2,31.11H5.69L4.5,44.05a14.64,14.64,0,0,1,2.61-9.16,8.61,8.61,0,0,1,6.68-3.81l6.79,2.45h0l6.58,2.38c1.06.38,2.17-.59,2.24-2.11a2.34,2.34,0,0,0-1.35-2.35l-4.42-1.59,8-20.06C32.54,7.56,35,5.6,37,5.6H76.49c1.93,0,4.42,2,5.31,4.2l8,20.06-4.43,1.59A2.34,2.34,0,0,0,84,33.8c.07,1.52,1.17,2.49,2.23,2.11l13.39-4.83a8.62,8.62,0,0,1,6.68,3.81A14.69,14.69,0,0,1,109,44Z" fill="none" stroke="#633cff" stroke-miterlimit="10" stroke-width="2"/>
        <path d="M99.37,21.84h6.07a2,2,0,0,0,1.82-2c.13-1.39-.7-2.58-1.75-2.58H99.44a2,2,0,0,0-1.82,2C97.49,20.65,98.32,21.84,99.37,21.84Z" fill="none" stroke="#633cff" stroke-miterlimit="10" stroke-width="2"/>
        <path d="M7.93,21.84H14a2,2,0,0,0,1.81-2c.13-1.39-.7-2.58-1.75-2.58H8a2,2,0,0,0-1.82,2C6.05,20.65,6.89,21.84,7.93,21.84Z" fill="none" stroke="#633cff" stroke-miterlimit="10" stroke-width="2"/>
        <path d="M76.32,59.83H37.08a2.09,2.09,0,0,0-1.77,2.3v6.05a2.25,2.25,0,0,0,1.55,2.37c1.07.17,2-.92,2-2.28V64.42H74.56v3.76a2.26,2.26,0,0,0,1.54,2.37c1.07.17,2-.92,2-2.28V62.13A2.09,2.09,0,0,0,76.32,59.83Z" fill="none" stroke="#633cff" stroke-miterlimit="10" stroke-width="2"/>
        <path d="M66.5,48.19c1,0,1.88-1.19,1.74-2.59a2,2,0,0,0-1.81-2H47a2,2,0,0,0-1.81,2c-.13,1.4.7,2.59,1.75,2.59Z" fill="none" stroke="#633cff" stroke-miterlimit="10" stroke-width="2"/>
      </g>
    </g>
  </g>
</svg>
