<svg xmlns="http://www.w3.org/2000/svg" viewBox="0 0 107 108">
  <g id="Layer_2" data-name="Layer 2">
    <g id="Layer_6" data-name="Layer 6">
      <g>
        <path d="M43.88,58.4a22.93,22.93,0,0,1-8.63,2.2,22.85,22.85,0,0,1-8.63-2.21l-3.47,7a30.5,30.5,0,0,0,12.1,3,30.52,30.52,0,0,0,12.11-3Z" fill="none" stroke="#633cff" stroke-miterlimit="10"/>
        <path d="M80.15,58.4a22.92,22.92,0,0,1-8.62,2.2,22.86,22.86,0,0,1-8.64-2.21l-3.46,7a30.38,30.38,0,0,0,12.1,3,30.44,30.44,0,0,0,12.1-3Z" fill="none" stroke="#633cff" stroke-miterlimit="10"/>
        <path d="M53.39,78.9a5.23,5.23,0,1,0,5.18,5.23A5.21,5.21,0,0,0,53.39,78.9Z" fill="none" stroke="#633cff" stroke-miterlimit="10"/>
        <polygon points="59.96 30.63 57.22 23.92 40.46 23.92 40.46 31.88 47.88 31.88 39.02 40.88 41.75 47.59 58.51 47.59 58.51 39.63 51.09 39.63 59.96 30.63" fill="none" stroke="#633cff" stroke-miterlimit="10"/>
        <polygon points="81.95 25.39 79.21 18.69 62.45 18.69 62.45 26.65 69.88 26.65 61.01 35.65 63.74 42.35 80.5 42.35 80.5 34.4 73.08 34.4 81.95 25.39" fill="none" stroke="#633cff" stroke-miterlimit="10"/>
        <polygon points="103.94 20.16 101.2 13.45 84.44 13.45 84.44 21.41 91.87 21.41 83 30.41 85.73 37.12 102.49 37.12 102.49 29.16 95.07 29.16 103.94 20.16" fill="none" stroke="#633cff" stroke-miterlimit="10"/>
        <path d="M105.72,44.87H97.83a45.68,45.68,0,0,1,.91,9.42c-.15,24.77-20,45-44.58,45.38C28.92,100,8.27,79.41,8.26,54S29.15,7.83,54.42,8.34a44.58,44.58,0,0,1,14.15,2.6h8.2v-5A52.23,52.23,0,0,0,53.45.5C24.25.53.44,24.64.5,54.11s23.81,53.39,53,53.39,53-24,53-53.5A53.82,53.82,0,0,0,105.72,44.87Z" fill="none" stroke="#633cff" stroke-miterlimit="10"/>
      </g>
    </g>
  </g>
</svg>
