<svg xmlns="http://www.w3.org/2000/svg" viewBox="0 0 107.5 106.5">
  <g id="Layer_2" data-name="Layer 2">
    <g id="Layer_11" data-name="Layer 11">
      <g>
        <path d="M53.75.75C24.53.75.75,24.3.75,53.25s23.78,52.5,53,52.5,53-23.55,53-52.5S83,.75,53.75.75Zm0,101.11c-27.06,0-49.07-21.81-49.07-48.61s22-48.61,49.07-48.61,49.07,21.81,49.07,48.61S80.81,101.86,53.75,101.86Z" fill="none" stroke="#fff" stroke-miterlimit="10" stroke-width="1.5"/>
        <path d="M42.65,32a2,2,0,0,0-2.14.42L28.73,44.06a1.91,1.91,0,0,0-.42,2.11,2,2,0,0,0,1.81,1.2H41.9a2,2,0,0,0,2-1.95V33.77A2,2,0,0,0,42.65,32Zm-2.72,11.5H34.85l5.08-5Z" fill="none" stroke="#fff" stroke-miterlimit="10" stroke-width="1.5"/>
        <path d="M78.66,44.06,66.88,32.39A2,2,0,0,0,64.74,32a2,2,0,0,0-1.21,1.8V45.43a1.94,1.94,0,0,0,2,1.94H77.27a2,2,0,0,0,1.81-1.2A1.91,1.91,0,0,0,78.66,44.06Zm-11.2-.59v-5l5.08,5Z" fill="none" stroke="#fff" stroke-miterlimit="10" stroke-width="1.5"/>
        <path d="M80.66,79.1c-.35-.34-8.62-8.35-24.95-8.35s-24.6,8-24.94,8.35a1.91,1.91,0,0,0,0,2.74,2,2,0,0,0,2.77,0c.07-.07,7.56-7.21,22.17-7.21s22.1,7.14,22.17,7.21a2,2,0,0,0,2.78,0A1.94,1.94,0,0,0,80.66,79.1Z" fill="none" stroke="#fff" stroke-miterlimit="10" stroke-width="1.5"/>
      </g>
    </g>
  </g>
</svg>
