<svg xmlns="http://www.w3.org/2000/svg" viewBox="0 0 112 112">
  <g id="Layer_2" data-name="Layer 2">
    <g id="Layer_13" data-name="Layer 13">
      <g>
        <path d="M40.79,19.12a8.89,8.89,0,0,0,8.7-9.07,8.72,8.72,0,1,0-17.43,0A8.92,8.92,0,0,0,40.79,19.12Z" fill="none" stroke="#fff" stroke-miterlimit="10" stroke-width="2"/>
        <path d="M104.69,79.36c-1.19-2.33-3.12-2.32-4.3,0l-1.47,2.9a8.33,8.33,0,0,1-6.74,4.23H88.74a13.08,13.08,0,0,0-7.95,3.27l-6.68,6.51a8,8,0,0,1-7.68,1.65L63,96.63a14.94,14.94,0,0,0-5.7-.71l12.9-64.31v.11a2,2,0,0,0-2-2.07,2.12,2.12,0,0,0-2,1.82L63.32,45.84a4.34,4.34,0,0,0-.47-.16l-12.3-3.22-3.48-14a6.29,6.29,0,0,0-5.73-4.62H33.13A5,5,0,0,0,32,24l.05-.14s-11.56,1.65-14,11.84,2.86,20.77,2.86,20.77h0l-10,42.64a7.18,7.18,0,0,0-.11,1.29,6.86,6.86,0,0,0,.19,1.51l-1.64-.63A5.27,5.27,0,0,0,3,103.84l-1.48,2.94C.3,109.11,1.4,111,3.93,111h99.75a5.89,5.89,0,0,0,5.49-4.69l1.65-8.55a16.11,16.11,0,0,0-1.26-8.91ZM40.22,98.08l-3.94-1.43a8.79,8.79,0,0,0-7.86,1.46l-4.91,4.2a6.22,6.22,0,0,1-1,.66,5.91,5.91,0,0,0,.27-.74L33.34,68.79l9,29.8A12.22,12.22,0,0,1,40.22,98.08Zm1.31-49.42,1.15-5.28.91,4.15a4.07,4.07,0,0,0,3.19,3L61,54.25a4.34,4.34,0,0,0,.62.06L53.76,93.39Z" fill="none" stroke="#fff" stroke-miterlimit="10" stroke-width="2"/>
      </g>
    </g>
  </g>
</svg>
