<svg xmlns="http://www.w3.org/2000/svg" viewBox="0 0 111.93 92">
  <g id="Layer_2" data-name="Layer 2">
    <g id="Layer_13" data-name="Layer 13">
      <g>
        <path d="M49.12,54.3H47.65A6.55,6.55,0,0,0,50.16,49c0-3.44-2.37-6.22-5.28-6.22H27.15S25,41.47,25.12,40a1.93,1.93,0,0,1,2.1-1.91h5.05a1.65,1.65,0,0,0,.81-2.67l-5.77-6.09a4.81,4.81,0,0,0-7.43.3L5.46,47C2.7,50.47,1,59.72,1,59.72v13C1,82.24,7.28,91,17,91H41.28a5.68,5.68,0,0,0,5.32-4.71,7,7,0,0,0-2.41-7.24h.92a5.67,5.67,0,0,0,5.31-4.71A7,7,0,0,0,48,67.1H49.2c3.44,0,6.12-3.76,5.27-8A5.7,5.7,0,0,0,49.12,54.3Z" fill="none" stroke="#633cff" stroke-miterlimit="10" stroke-width="2"/>
        <path d="M106.59,46.94,92.58,30a4.67,4.67,0,0,0-7.21-.28L79.8,35.62c-.81.86-.3,2.46.8,2.46h4.82a2.2,2.2,0,0,1,2.08,2.13,2.23,2.23,0,0,1-2,2.57l-18.38.06c-2.89,0-5.25,2.77-5.25,6.19a6.48,6.48,0,0,0,2.5,5.27H62.92a5.7,5.7,0,0,0-5.35,4.81c-.86,4.23,1.83,8,5.27,8H64a7,7,0,0,0-2.4,7.24,5.67,5.67,0,0,0,5.31,4.71h.81a7,7,0,0,0-2.41,7.24A5.68,5.68,0,0,0,70.65,91H95.72c8.4,0,15.21-8,15.21-18V59.28A22,22,0,0,0,106.59,46.94Z" fill="none" stroke="#633cff" stroke-miterlimit="10" stroke-width="2"/>
        <path d="M58.86,32.34v-28A3.18,3.18,0,0,0,56.49,1,2.93,2.93,0,0,0,53.43,4.2v28a3.17,3.17,0,0,0,2.38,3.3C57.46,35.75,58.86,34.24,58.86,32.34Z" fill="none" stroke="#633cff" stroke-miterlimit="10" stroke-width="2"/>
        <path d="M42.73,33.7a2.56,2.56,0,0,0,3.61,1.54A3.48,3.48,0,0,0,47.63,31L39.3,10.09a2.55,2.55,0,0,0-3.61-1.53,3.46,3.46,0,0,0-1.3,4.26Z" fill="none" stroke="#633cff" stroke-miterlimit="10" stroke-width="2"/>
        <path d="M65.7,35.23a2.55,2.55,0,0,0,3.61-1.53l8.34-20.88a3.46,3.46,0,0,0-1.3-4.26,2.55,2.55,0,0,0-3.61,1.53L64.4,31A3.48,3.48,0,0,0,65.7,35.23Z" fill="none" stroke="#633cff" stroke-miterlimit="10" stroke-width="2"/>
      </g>
    </g>
  </g>
</svg>
