<svg xmlns="http://www.w3.org/2000/svg" viewBox="0 0 112 112">
  <g id="Layer_2" data-name="Layer 2">
    <g id="Layer_13" data-name="Layer 13">
      <g>
        <path d="M81.62,103.9V76.36h7.51V47.75H22.87V76.36h7.51V103.9H1V111H111v-7.1ZM30,69.26V54.85h52.1V69.26H30Zm44.6,34.64H37.67V76.36H74.55Z" fill="none" stroke="#fff" stroke-miterlimit="10" stroke-width="2"/>
        <path d="M56,1A21.55,21.55,0,1,0,77.49,22.55,21.54,21.54,0,0,0,56,1Zm0,35.92A14.37,14.37,0,1,1,70.33,22.55,14.37,14.37,0,0,1,56,36.92Z" fill="none" stroke="#fff" stroke-miterlimit="10" stroke-width="2"/>
        <path d="M57.52,20.7c-.3-.08-.77-.24-.77-.24v-1.8l3,1.22,1.68-3.22A14,14,0,0,0,57,15.18V13.11h-1.5v2.05c-2.55.28-4.6,1.9-4.6,4.76,0,2.08,1.09,3.14,3.59,4a11.4,11.4,0,0,0,1.23.38V26a10.93,10.93,0,0,1-3.77-1.5L50.24,28a12.79,12.79,0,0,0,5.22,1.6v2.49H57V29.6c2.47-.16,4.83-1.34,4.83-4.5C61.79,22.44,60.13,21.52,57.52,20.7Zm-1.84-.58c-.52-.22-.8-.44-.8-.84s.3-.62.8-.68Zm1.07,6V24.62c.54.22.88.48.88.86S57.39,26,56.75,26.1Z" fill="none" stroke="#fff" stroke-miterlimit="10" stroke-width="2"/>
      </g>
    </g>
  </g>
</svg>
