<svg xmlns="http://www.w3.org/2000/svg" viewBox="0 0 112.13 93">
  <g id="Layer_2" data-name="Layer 2">
    <g id="Layer_13" data-name="Layer 13">
      <g>
        <path d="M109.61,13.81a6.64,6.64,0,0,0-5.33-2.56H102.5V3.07a2,2,0,0,0-1.17-1.87,2,2,0,0,0-2.13.27L88,11.48H26.63v-4a2.07,2.07,0,0,0-1.81-2.13,2,2,0,0,0-2.05,2.07v3.87h-10a7.47,7.47,0,0,0-4,1.17L4.34,7.75a1.88,1.88,0,0,0-2.77,0,2.15,2.15,0,0,0,0,2.92l4.55,4.69a8.51,8.51,0,0,0-1,4.2V29.9c0,4.58,3.28,8.27,7.58,8.27h2.21C16.34,43.35,17.46,51.6,13,59.93,6.81,71.38,4.7,79.38,6.32,85.08a10.69,10.69,0,0,0,5.47,6.68,1.92,1.92,0,0,0,.93.24H36.09A2,2,0,0,0,38,90.28c1.06-6.76,2.57-15.37,4.14-23.13,1.92-.16,31.45-3.1,34.71-29h23.51a9.34,9.34,0,0,0,8.82-7.79L111,19.81A7.67,7.67,0,0,0,109.61,13.81Zm-11-6.38v3.82H94.05ZM34.49,87.67H13.25a6.78,6.78,0,0,1-3.14-4c-1.26-4.4.86-11.74,6.29-21.83a30.32,30.32,0,0,0,2.73-7,12,12,0,0,0,3.71,3.47,13.22,13.22,0,0,0,6.9,1.76,28.09,28.09,0,0,0,10.5-2.46C37.69,68.36,35.33,82.5,34.49,87.67Zm22.6-28.94a47,47,0,0,1-14,4.13c1.59-7.33,3.18-13.3,4.41-15.25a63.08,63.08,0,0,1,4.16-5.67,10.52,10.52,0,0,0,2,5.28c1.71,2.22,4.31,3.36,7.72,3.38a2.07,2.07,0,0,0,.09-4.14c-2.22,0-3.83-.62-4.79-1.85-1.73-2.22-1.11-5.92-1.09-6s0-.41,0-.41H72.89C71.57,47.47,66.26,54.27,57.09,58.73Zm50.54-39.66-1.82,10.59a5.43,5.43,0,0,1-5,4.4H54.08a1.93,1.93,0,0,0-1.44.69A95.65,95.65,0,0,0,44.36,45.4a32.77,32.77,0,0,0-2.75,7.45,1.66,1.66,0,0,0-.35.13c-7.14,3.45-12.84,4.14-16.48,2a9.6,9.6,0,0,1-4.26-6.62,2.08,2.08,0,0,0-.44-1A37.73,37.73,0,0,0,18.2,35.47a2,2,0,0,0-1.85-1.41H12.7A3.85,3.85,0,0,1,9,29.92V19.56c0-2.3,1.53-4.2,3.69-4.2h92a2.9,2.9,0,0,1,2.34,1.07A3.35,3.35,0,0,1,107.63,19.07Z" fill="none" stroke="#633cff" stroke-miterlimit="10" stroke-width="2"/>
        <rect x="40.17" y="19.69" width="60.39" height="4.11" fill="none" stroke="#633cff" stroke-miterlimit="10" stroke-width="2"/>
      </g>
    </g>
  </g>
</svg>
