<svg xmlns="http://www.w3.org/2000/svg" viewBox="0 0 114 112">
  <g id="Layer_2" data-name="Layer 2">
    <g id="Layer_13" data-name="Layer 13">
      <path d="M96.6,17.11a56.73,56.73,0,0,0-79.2,0,54.31,54.31,0,0,0,0,77.78,56.73,56.73,0,0,0,79.2,0,54.31,54.31,0,0,0,0-77.78ZM8.81,56a46.59,46.59,0,0,1,10-28.89,31.74,31.74,0,0,1,0,57.78A46.59,46.59,0,0,1,8.81,56ZM57,103.33A48.45,48.45,0,0,1,24.34,90.76,40,40,0,0,0,37.91,78.85a39.11,39.11,0,0,0,0-45.7A40,40,0,0,0,24.34,21.24a48.71,48.71,0,0,1,65.32,0A40,40,0,0,0,76.09,33.15a39.11,39.11,0,0,0,0,45.7A40.09,40.09,0,0,0,89.66,90.76,48.45,48.45,0,0,1,57,103.33ZM95.14,84.89a31.73,31.73,0,0,1,0-57.78,46.55,46.55,0,0,1,0,57.78Z" fill="none" stroke="#fff" stroke-miterlimit="10" stroke-width="2"/>
    </g>
  </g>
</svg>
