<svg xmlns="http://www.w3.org/2000/svg" viewBox="0 0 89.91 109.93">
  <g id="Layer_2" data-name="Layer 2">
    <g id="Layer_13" data-name="Layer 13">
      <g>
        <path d="M87.34,4.39A4.48,4.48,0,0,0,82.74,1H74.08a4.55,4.55,0,0,0-4.57,3.25L69,6.47a4,4,0,0,0,3.33,4.65l2,.49a1.23,1.23,0,0,1,1,1.5l-2.81,9.27a1.36,1.36,0,0,1-1,.88,41.62,41.62,0,0,0-8.84,3.54,11.51,11.51,0,0,1-7.54,1A50.91,50.91,0,0,0,45,26.92a50.87,50.87,0,0,0-10.24.92,11.5,11.5,0,0,1-7.54-1,41.68,41.68,0,0,0-8.85-3.54,1.34,1.34,0,0,1-1-.88l-2.81-9.27a1.23,1.23,0,0,1,1-1.5l2-.49A4,4,0,0,0,20.9,6.47l-.51-2.22A4.53,4.53,0,0,0,15.83,1H7.17a4.48,4.48,0,0,0-4.6,3.39A94.11,94.11,0,0,0,1.18,27a10.29,10.29,0,0,0,6.05,8.41l16.71,8.18a4.64,4.64,0,0,1,2.71,3.67l.62,6.5a15.2,15.2,0,0,1-.85,6.63L11.18,102.75c-1,2.81,1.14,5.82,4.72,6.16a4.61,4.61,0,0,0,.53,0H28.86c3.37,0,6.27-2.05,7-4.89l8.35-34.91a.77.77,0,0,1,.83-.58h0a.79.79,0,0,1,.84.58L54.09,104c.69,2.85,3.59,4.9,7,4.9H73.45c3.41,0,6.1-2.66,5.42-5.71a3.88,3.88,0,0,0-.14-.45L63.48,60.37a15.19,15.19,0,0,1-.84-6.63l.62-6.5A4.65,4.65,0,0,1,66,43.57l16.72-8.18a10.29,10.29,0,0,0,6-8.41A95.18,95.18,0,0,0,87.34,4.39ZM85.53,26.63A7.51,7.51,0,0,1,81.1,32.8L64.35,41A7.46,7.46,0,0,0,60,46.88l-.62,6.51a17.61,17.61,0,0,0,1,7.7l15.28,42.48a2,2,0,0,1-1.52,2.49,2.59,2.59,0,0,1-.68.09H61.06a3.8,3.8,0,0,1-3.8-2.68L49,68.58h0a3.89,3.89,0,0,0-4-2.82h0a3.91,3.91,0,0,0-4,2.81l-8.34,34.91a3.81,3.81,0,0,1-3.8,2.67H16.51a2.48,2.48,0,0,1-2-.86,1.79,1.79,0,0,1-.3-1.72L29.53,61.09a17.76,17.76,0,0,0,1-7.7l-.62-6.51A7.48,7.48,0,0,0,25.56,41L8.81,32.8a7.54,7.54,0,0,1-4.44-6.17,92.17,92.17,0,0,1,1.36-22,1.39,1.39,0,0,1,1.42-1h8.68a1.4,1.4,0,0,1,1.41,1l.51,2.24a1.23,1.23,0,0,1-1,1.43l-2,.49c-2.47.59-3.93,2.78-3.29,4.92l2.82,9.31a3.69,3.69,0,0,0,.61,1.18,6,6,0,0,0-.9,3.31,1.55,1.55,0,0,0,1.66,1.42h.1a1.47,1.47,0,0,0,1.58-1.37h0A3.48,3.48,0,0,1,17.57,26a40.18,40.18,0,0,1,8,3.08,15.81,15.81,0,0,0,9.92,1.32A93.66,93.66,0,0,1,45,29.55h0a48.84,48.84,0,0,1,9.52.82,15.85,15.85,0,0,0,9.93-1.32,40,40,0,0,1,8.09-3.12,1.92,1.92,0,0,0,.32-.09,3.52,3.52,0,0,1,.38,1.64,1.51,1.51,0,0,0,1.64,1.37h0a1.55,1.55,0,0,0,1.66-1.42,5.8,5.8,0,0,0-1.16-3.68,3.69,3.69,0,0,0,.37-.81l2.82-9.31c.64-2.14-.82-4.33-3.29-4.92l-2.06-.49a1.24,1.24,0,0,1-1-1.43l.51-2.24a1.41,1.41,0,0,1,1.41-1h8.69a1.37,1.37,0,0,1,1.41,1A92.17,92.17,0,0,1,85.53,26.63Z" fill="none" stroke="#fff" stroke-miterlimit="10" stroke-width="2"/>
        <path d="M45.13,24.9c7.12,0,12.92-4.75,12.92-10.59S52.25,3.73,45.13,3.73,32.21,8.48,32.21,14.31,38,24.9,45.13,24.9Zm0-18.39c5.34,0,9.69,3.5,9.69,7.8s-4.35,7.8-9.69,7.8-9.7-3.5-9.7-7.8S39.78,6.51,45.13,6.51Z" fill="none" stroke="#fff" stroke-miterlimit="10" stroke-width="2"/>
        <path d="M45.13,20.4c2.94,0,4.07-1.54,4.51-2.72a1,1,0,0,0-.77-1.31,1.5,1.5,0,0,0-.37-.05H41.75a1.13,1.13,0,0,0-1.2,1,.91.91,0,0,0,.06.32C41.05,18.86,42.18,20.4,45.13,20.4Z" fill="none" stroke="#fff" stroke-miterlimit="10" stroke-width="2"/>
        <path d="M45,35.26c-5.49,0-10,3.84-10,8.59s4.46,8.59,10,8.59,10-3.84,10-8.59h0C54.9,39.11,50.45,35.26,45,35.26ZM48.7,45.35H44.45a1,1,0,0,1-1.12-1V38.76a1.13,1.13,0,0,1,1.61-.89,1,1,0,0,1,.64.89h0V43.4h3.06a1.14,1.14,0,0,1,1.16.8,1,1,0,0,1-1.11,1.15Z" fill="none" stroke="#fff" stroke-miterlimit="10" stroke-width="2"/>
      </g>
    </g>
  </g>
</svg>
