<svg xmlns="http://www.w3.org/2000/svg" viewBox="0 0 109.4 108.75">
  <g id="Layer_2" data-name="Layer 2">
    <g id="Layer_4" data-name="Layer 4">
      <g>
        <path d="M25.29,66.64c8.78,0,14.89-9.79,14.89-18.57S34.06,33,25.29,33,10.4,39.2,10.4,48.07,16.51,66.64,25.29,66.64Zm0-31.88c7.55,0,12.82,5.47,12.82,13.31,0,8.8-6.11,16.82-12.82,16.82s-12.81-8-12.81-16.82C12.48,40.23,17.75,34.76,25.29,34.76Z" fill="none" stroke="#fff" stroke-miterlimit="10" stroke-width="1.4"/>
        <path d="M25.29,68.45a24.76,24.76,0,0,0-23,33.36l.1.29.29.17a45.34,45.34,0,0,0,22.66,5.78A45.28,45.28,0,0,0,48,102.27l.29-.17.11-.29A24.79,24.79,0,0,0,25.29,68.45ZM46.46,101a43,43,0,0,1-21.17,5.29A43,43,0,0,1,4.12,101a23.33,23.33,0,0,1-1.34-7.76c0-12.71,10.1-23,22.51-23s22.51,10.33,22.51,23A23.33,23.33,0,0,1,46.46,101Z" fill="none" stroke="#fff" stroke-miterlimit="10" stroke-width="1.4"/>
        <path d="M84.11,33c-8.77,0-14.89,6.19-14.89,15.06s6.11,18.57,14.89,18.57S99,56.85,99,48.07,92.88,33,84.11,33Zm0,31.88c-6.71,0-12.82-8-12.82-16.82,0-7.84,5.27-13.31,12.82-13.31s12.81,5.47,12.81,13.31C96.92,56.87,90.82,64.89,84.11,64.89Z" fill="none" stroke="#fff" stroke-miterlimit="10" stroke-width="1.4"/>
        <path d="M84.11,68.45a24.79,24.79,0,0,0-23.06,33.36l.11.29.29.17a45.31,45.31,0,0,0,22.66,5.78,45.31,45.31,0,0,0,22.66-5.78l.29-.17.1-.29a24.76,24.76,0,0,0-23-33.36ZM105.28,101a43,43,0,0,1-21.17,5.29A43,43,0,0,1,62.94,101a23.33,23.33,0,0,1-1.34-7.76c0-12.71,10.09-23,22.51-23s22.51,10.33,22.51,23A23.33,23.33,0,0,1,105.28,101Z" fill="none" stroke="#fff" stroke-miterlimit="10" stroke-width="1.4"/>
        <path d="M86.12,1h-54V29H43.44l3.77,4.16.87-1.08a25.09,25.09,0,0,1,3-3.08h33l2.07-29ZM82,27.27H49.41l-.3.4c-.82,1.07-1.71,2.19-2.34,3l-2.62-3.39h-10V2.77H82Z" fill="none" stroke="#fff" stroke-miterlimit="10" stroke-width="1.4"/>
        <path d="M59.37,17.11c2.57,0,4.67-1.77,4.67-3.93s-2.1-3.94-4.67-3.94S54.7,11,54.7,13.18,56.79,17.11,59.37,17.11Zm0-6.12A2.43,2.43,0,0,1,62,13.18a2.63,2.63,0,0,1-5.19,0A2.42,2.42,0,0,1,59.37,11Z" fill="none" stroke="#fff" stroke-miterlimit="10" stroke-width="1.4"/>
        <path d="M69.07,17.11c2.58,0,4.68-1.77,4.68-3.93s-2.1-3.94-4.68-3.94S64.4,11,64.4,13.18,66.5,17.11,69.07,17.11Zm0-6.12a2.43,2.43,0,0,1,2.6,2.19,2.63,2.63,0,0,1-5.19,0A2.42,2.42,0,0,1,69.07,11Z" fill="none" stroke="#fff" stroke-miterlimit="10" stroke-width="1.4"/>
        <path d="M49.66,17.11c2.58,0,4.68-1.77,4.68-3.93s-2.1-3.94-4.68-3.94S45,11,45,13.18,47.09,17.11,49.66,17.11Zm0-6.12a2.43,2.43,0,0,1,2.6,2.19,2.63,2.63,0,0,1-5.19,0A2.42,2.42,0,0,1,49.66,11Z" fill="none" stroke="#fff" stroke-miterlimit="10" stroke-width="1.4"/>
      </g>
    </g>
  </g>
</svg>
