<svg xmlns="http://www.w3.org/2000/svg" viewBox="0 0 106.8 106.8">
  <g id="Layer_2" data-name="Layer 2">
    <g id="Layer_2-2" data-name="Layer 2">
      <g>
        <path d="M53.4.4C24.18.4.4,15.06.4,33.08H11C11,18.39,30.79,6.5,54.78,7c23,.46,41.3,12.32,41,26.5a17.58,17.58,0,0,1-2.83,9L63.7,89.09c-4,6.43-14.24,10.74-25.42,10.74H19.89v6.57H38.28a55.28,55.28,0,0,0,21.66-4.19c6.23-2.68,11-6.4,13.69-10.75l29.22-46.6a22,22,0,0,0,3.55-11.78C106.4,15.06,82.62.4,53.4.4Z" fill="none" stroke="#fff" stroke-miterlimit="10" stroke-width="0.8"/>
        <path d="M27,69.63h-7.1V76.2H35.38a8.8,8.8,0,0,0,4.49-1.14c18.42-11,8.82-24.31-7.55-26.72v-20A3.08,3.08,0,0,1,34,25.79c18.25-11.62,40.62-3.74,40.62,7.29H85.22c0-16.58-33.59-28.42-61-11a4.71,4.71,0,0,0-2.52,3.82V54.53h5c7.16,0,12.93,3.61,12.49,8C38.82,66.5,33.48,69.63,27,69.63Z" fill="none" stroke="#fff" stroke-miterlimit="10" stroke-width="0.8"/>
      </g>
    </g>
  </g>
</svg>
