<svg xmlns="http://www.w3.org/2000/svg" viewBox="0 0 107 106.22">
  <g id="Layer_2" data-name="Layer 2">
    <g id="Layer_12" data-name="Layer 12">
      <g>
        <path d="M18.29,31.05c4.23,0,7.68-4.85,7.68-9A7.69,7.69,0,0,0,10.6,22C10.6,26.2,14,31.05,18.29,31.05Z" fill="none" stroke="#fff" stroke-miterlimit="10"/>
        <path d="M33.46,36.56a2.82,2.82,0,0,0-.21-.64,3.79,3.79,0,0,0-.3-.4,3.5,3.5,0,0,0-.44-.5,3.47,3.47,0,0,0-.46-.27,2.78,2.78,0,0,0-.47-.28,49.77,49.77,0,0,0-12.11-2.54l-.78,1.52h0l2.06,15.68-2.44,4.18-2.46-4.18,2.06-15.68h0l-.78-1.52A49.9,49.9,0,0,0,5,34.47a2.78,2.78,0,0,0-.47.28,2.56,2.56,0,0,0-.45.27,3.1,3.1,0,0,0-.45.51,3.47,3.47,0,0,0-.29.38,3.11,3.11,0,0,0-.22.65c0,.14-.11.25-.13.39L.52,58.47a3,3,0,0,0,2.71,3.31h.34a3,3,0,0,0,3-2.65L8.85,39.53l.85-.24v20.4L7.26,89.28a3.62,3.62,0,0,0,3.37,3.86h.3a3.65,3.65,0,0,0,3.67-3.3l2.2-26.74a3.71,3.71,0,0,0,3,0L22,89.85a3.65,3.65,0,0,0,3.66,3.3h.3a3.62,3.62,0,0,0,3.38-3.86L26.87,59.69V39.29l.84.24L30,59.14a3,3,0,0,0,3,2.65h.35A3,3,0,0,0,36,58.47L33.59,37A2.55,2.55,0,0,0,33.46,36.56Z" fill="none" stroke="#fff" stroke-miterlimit="10"/>
        <path d="M69,22.92a1.88,1.88,0,0,0-.1-.35l-.07-.2a2.71,2.71,0,0,0-.22-.64,2.22,2.22,0,0,0-.25-.35l-.12-.15a2.77,2.77,0,0,0-.46-.53c-.12-.09-.25-.16-.38-.24l-.13-.07-.13-.08a1.84,1.84,0,0,0-.4-.22,48.84,48.84,0,0,0-11.59-2.5c3.73-1,6.44-5.35,6.44-9.16a8.06,8.06,0,0,0-16.12,0c0,3.8,2.7,8.13,6.43,9.15a49.38,49.38,0,0,0-11.58,2.5,1.94,1.94,0,0,0-.41.22l-.13.09-.12.06a2.36,2.36,0,0,0-.38.24,3.29,3.29,0,0,0-.52.58l-.07.1a1.67,1.67,0,0,0-.24.35,2.74,2.74,0,0,0-.23.64l.42.2h-.48a1,1,0,0,0-.1.35L35.62,44.22a3.33,3.33,0,0,0,.74,2.5A3.48,3.48,0,0,0,42.51,45l2.11-18.74V45.44L42.23,74.73a3.89,3.89,0,0,0,1,2.91,4.07,4.07,0,0,0,7.14-2.27l2.12-25.89a4.15,4.15,0,0,0,2.1,0l2.12,25.89a4.06,4.06,0,0,0,4,3.69h.06a4,4,0,0,0,4-4.32L62.38,45.47V26.23L64.49,45a3.48,3.48,0,0,0,3.83,3,3.43,3.43,0,0,0,3.06-3.76ZM46.3,8.12a7.22,7.22,0,0,1,14.44,0c0,3.88-3.22,8.56-7.22,8.56S46.3,12,46.3,8.12Zm7.34,10.77H53.4l-.7-1.37a5.9,5.9,0,0,0,.83.11,5.44,5.44,0,0,0,.81-.11Zm1.83,16-1.95,3.36-2-3.36,2-15ZM68.56,47.18A2.55,2.55,0,0,1,65.74,45l-2.2-19.47,0-.3-1.71-.49V45.6L64.19,75a3,3,0,0,1-.75,2.26,3.13,3.13,0,0,1-2.15,1.09,3.19,3.19,0,0,1-3.41-2.86L55.66,48.29l-.58.25a3.19,3.19,0,0,1-2.57,0l-.58-.25L49.71,75.47a3.17,3.17,0,0,1-3.15,2.87h-.05a3.24,3.24,0,0,1-1.84-.61A3.12,3.12,0,0,1,43.4,75l2.41-29.42V24.7l-1.72.49L41.86,45a2.57,2.57,0,0,1-4.54,1.29,2.49,2.49,0,0,1-.55-1.85L39.18,23s0-.07,0-.11a1.37,1.37,0,0,0,.1-.31,2.37,2.37,0,0,1,.15-.45,1.49,1.49,0,0,1,.15-.2l.15-.19a2.37,2.37,0,0,1,.32-.37,1.16,1.16,0,0,1,.23-.14l.15-.08.2-.13a.77.77,0,0,1,.19-.11,48.71,48.71,0,0,1,11.49-2.48l.59,1.16-2,15.55,2.89,5,2.89-5-2-15.56.58-1.15a49.27,49.27,0,0,1,11.5,2.48l.19.11.19.13.16.09a1.16,1.16,0,0,1,.22.13,2.49,2.49,0,0,1,.37.43L68,22c0,.07.11.14.15.21a3.33,3.33,0,0,1,.18.54.94.94,0,0,0,.07.22.37.37,0,0,1,0,.11l2.42,21.38A2.53,2.53,0,0,1,68.56,47.18Z" fill="none" stroke="#fff" stroke-miterlimit="10"/>
        <path d="M88.76,31.05c4.23,0,7.68-4.85,7.68-9a7.68,7.68,0,0,0-15.36,0C81.08,26.2,84.51,31.05,88.76,31.05Z" fill="none" stroke="#fff" stroke-miterlimit="10"/>
        <path d="M104,37a2.58,2.58,0,0,0-.14-.39,2.82,2.82,0,0,0-.21-.64,3.79,3.79,0,0,0-.3-.4A3,3,0,0,0,103,35a3.47,3.47,0,0,0-.46-.27,2.35,2.35,0,0,0-.46-.28,50,50,0,0,0-12.12-2.54l-.78,1.52h0l2.06,15.68-2.45,4.18-2.45-4.18,2.06-15.68h0l-.78-1.52a50,50,0,0,0-12.12,2.54,2.69,2.69,0,0,0-.46.28,2.24,2.24,0,0,0-.45.27,3.72,3.72,0,0,0-.46.51c-.09.13-.2.24-.28.38a3.11,3.11,0,0,0-.22.65c0,.14-.11.25-.13.39L71,58.47a3,3,0,0,0,2.71,3.31H74a3,3,0,0,0,3-2.65l2.23-19.61.86-.24v20.4L77.69,89.28a3.62,3.62,0,0,0,3.38,3.86h.29A3.65,3.65,0,0,0,85,89.85l2.2-26.74a3.67,3.67,0,0,0,1.48.31,3.71,3.71,0,0,0,1.49-.31l2.21,26.74a3.63,3.63,0,0,0,3.66,3.3h.3a3.62,3.62,0,0,0,3.37-3.86L97.3,59.69V39.29l.85.24,2.24,19.61a3,3,0,0,0,3,2.65h.34a3,3,0,0,0,2.71-3.31Z" fill="none" stroke="#fff" stroke-miterlimit="10"/>
        <polygon points="39.89 85.28 39.89 95.22 49.66 105.5 68.3 86.26 68.3 76.42 49.71 95.61 39.89 85.28" fill="none" stroke="#fff" stroke-miterlimit="10"/>
      </g>
    </g>
  </g>
</svg>
