<svg xmlns="http://www.w3.org/2000/svg" viewBox="0 0 96 108">
  <g id="Layer_2" data-name="Layer 2">
    <g id="Layer_8" data-name="Layer 8">
      <g>
        <ellipse cx="52.76" cy="53.71" rx="3.23" ry="3.1" fill="none" stroke="#633cff" stroke-miterlimit="10" stroke-width="2"/>
        <path d="M52.86,1a42.36,42.36,0,0,0-18,3.9c-14.4,6.48-24.39,20.41-24.39,36.59V48.2L1.88,64c-2.21,4-.11,7.26,4.53,7.26h4.06v15a8.64,8.64,0,0,0,8.81,8.47l12.17-1.78v11.8a2.46,2.46,0,0,0,3,2.23l43.81-7.48a3.72,3.72,0,0,0,3-3.47V71.26A39.59,39.59,0,0,0,95,41.49C94.91,19.18,76.09,1,52.86,1ZM73.59,61.32a30.5,30.5,0,0,1-35.74,4.42l-.09-.09A17.11,17.11,0,0,1,25.17,68.9a1.1,1.1,0,0,1-.29-2.1A13.94,13.94,0,0,0,31,60.19l-.2-.19A27.44,27.44,0,0,1,32,21.26a30.15,30.15,0,0,1,41.63,0A27.64,27.64,0,0,1,73.59,61.32Z" fill="none" stroke="#633cff" stroke-miterlimit="10" stroke-width="2"/>
        <path d="M52.79,48.38A2.55,2.55,0,0,0,55.38,46l.52-17.23a3.12,3.12,0,0,0-6.23,0L50.17,46A2.55,2.55,0,0,0,52.79,48.38Z" fill="none" stroke="#633cff" stroke-miterlimit="10" stroke-width="2"/>
      </g>
    </g>
  </g>
</svg>
