<svg xmlns="http://www.w3.org/2000/svg" viewBox="0 0 108 106.1">
  <g id="Layer_2" data-name="Layer 2">
    <g id="Layer_7" data-name="Layer 7">
      <g>
        <path d="M104.85,8.09,88.61,2.14c-2-.73-4.59-.33-5.79.91s-.53,2.83,1.47,3.56L88,8H31.72V7.7c0-1.12-1.47-2.17-3.28-2.28a5.05,5.05,0,0,0-3,.74L18,1.41A2.31,2.31,0,0,0,16.61,1a1.71,1.71,0,0,0-.87.24.77.77,0,0,0-.36,1l1,2.71L10.79,1.41A2.29,2.29,0,0,0,9.4,1a1.74,1.74,0,0,0-.87.24.79.79,0,0,0-.36,1L9.15,5,3.59,1.41A2.4,2.4,0,0,0,2.21,1a1.68,1.68,0,0,0-.95.32.73.73,0,0,0-.08,1l5,8.18v0l-5,8.19a.72.72,0,0,0,.08,1,1.64,1.64,0,0,0,1,.32,2.26,2.26,0,0,0,1.38-.41l5.56-3.57-1,2.71a.81.81,0,0,0,.5,1.1,1.89,1.89,0,0,0,.81.17h0a2.38,2.38,0,0,0,1.31-.41l5.57-3.57-1,2.71a.79.79,0,0,0,.36,1,1.77,1.77,0,0,0,.86.23,2.32,2.32,0,0,0,1.4-.4l7.4-4.75a4.92,4.92,0,0,0,3,.74c1.81-.1,3.28-1.16,3.28-2.27v-.26H87.79l-3.57,1.37c-2,.76-2.58,2.36-1.35,3.58a5.23,5.23,0,0,0,3.59,1.22,6.23,6.23,0,0,0,2.23-.39l16.24-6.25c1.31-.5,2.09-1.37,2.07-2.31S106.18,8.58,104.85,8.09Z" fill="none" stroke="#633cff" stroke-miterlimit="10" stroke-width="2"/>
        <path d="M104.85,93.09l-16.24-6c-2-.73-4.59-.33-5.79.91s-.53,2.83,1.47,3.56L88,93H31.72V92.7c0-1.12-1.47-2.17-3.28-2.28a5.05,5.05,0,0,0-3,.74L18,86.41a2.31,2.31,0,0,0-1.39-.4,1.71,1.71,0,0,0-.87.24.77.77,0,0,0-.36,1l1,2.71-5.57-3.57A2.29,2.29,0,0,0,9.4,86a1.74,1.74,0,0,0-.87.24.79.79,0,0,0-.36,1l1,2.71L3.59,86.41A2.4,2.4,0,0,0,2.21,86a1.68,1.68,0,0,0-.95.32.73.73,0,0,0-.08,1l5,8.18v0l-5,8.19a.72.72,0,0,0,.08,1,1.64,1.64,0,0,0,1,.32,2.26,2.26,0,0,0,1.38-.41l5.56-3.57-1,2.71a.81.81,0,0,0,.5,1.1,1.89,1.89,0,0,0,.81.17h0a2.38,2.38,0,0,0,1.31-.41l5.57-3.57-1,2.71a.79.79,0,0,0,.36,1,1.77,1.77,0,0,0,.86.23,2.32,2.32,0,0,0,1.4-.4l7.4-4.75a4.92,4.92,0,0,0,3,.74c1.81-.1,3.28-1.16,3.28-2.27v-.26H87.79l-3.57,1.37c-2,.76-2.58,2.36-1.35,3.58a5.23,5.23,0,0,0,3.59,1.22,6.23,6.23,0,0,0,2.23-.39l16.24-6.25c1.31-.5,2.09-1.37,2.07-2.31S106.18,93.58,104.85,93.09Z" fill="none" stroke="#633cff" stroke-miterlimit="10" stroke-width="2"/>
        <path d="M104.85,51.09l-16.24-6c-2-.73-4.59-.33-5.79.91s-.53,2.83,1.47,3.56L88,51H31.72V50.7c0-1.12-1.47-2.17-3.28-2.28a5.05,5.05,0,0,0-3,.74L18,44.41a2.31,2.31,0,0,0-1.39-.4,1.71,1.71,0,0,0-.87.24.77.77,0,0,0-.36,1l1,2.71-5.57-3.57A2.29,2.29,0,0,0,9.4,44a1.74,1.74,0,0,0-.87.24.79.79,0,0,0-.36,1l1,2.71L3.59,44.41A2.4,2.4,0,0,0,2.21,44a1.68,1.68,0,0,0-.95.32.73.73,0,0,0-.08,1l5,8.18v0l-5,8.19a.72.72,0,0,0,.08,1,1.64,1.64,0,0,0,1,.32,2.26,2.26,0,0,0,1.38-.41l5.56-3.57-1,2.71a.81.81,0,0,0,.5,1.1,1.89,1.89,0,0,0,.81.17h0a2.38,2.38,0,0,0,1.31-.41l5.57-3.57-1,2.71a.79.79,0,0,0,.36,1,1.77,1.77,0,0,0,.86.23,2.32,2.32,0,0,0,1.4-.4l7.4-4.75a4.92,4.92,0,0,0,3,.74c1.81-.1,3.28-1.16,3.28-2.27v-.26H87.79l-3.57,1.37c-2,.76-2.58,2.36-1.35,3.58a5.23,5.23,0,0,0,3.59,1.22,6.23,6.23,0,0,0,2.23-.39l16.24-6.25c1.31-.5,2.09-1.37,2.07-2.31S106.18,51.58,104.85,51.09Z" fill="none" stroke="#633cff" stroke-miterlimit="10" stroke-width="2"/>
      </g>
    </g>
  </g>
</svg>
