<svg xmlns="http://www.w3.org/2000/svg" viewBox="0 0 108.11 108">
  <g id="Layer_2" data-name="Layer 2">
    <g id="Layer_1-2" data-name="Layer 1">
      <path d="M9.57,85.42H44.62V95.85H37.78a2.18,2.18,0,0,0-2.06,2.28v6.59A2.18,2.18,0,0,0,37.78,107H70.55a2.18,2.18,0,0,0,2.06-2.28V98.39a2.19,2.19,0,0,0-2.07-2.3H63.71V85.42H98.54c4.74,0,8.57-4.19,8.57-9.37V10.37c0-5.18-3.83-9.37-8.57-9.37h-89C4.84,1,1,5.19,1,10.37V76.05C1,81.23,4.84,85.42,9.57,85.42Zm3.15-71.61H95.4V72.62H12.72ZM65.18,28.09l6.75,7.42L56.37,52.42,49.58,59.8l-6.75-7.4-6.51-7.16,6.79-7.38L49.62,45Z" fill="none" stroke="#633cff" stroke-miterlimit="10" stroke-width="2"/>
    </g>
  </g>
</svg>
