<svg xmlns="http://www.w3.org/2000/svg" viewBox="0 0 108 108">
  <g id="Layer_2" data-name="Layer 2">
    <g id="Layer_3" data-name="Layer 3">
      <g>
        <path d="M105.58,48.16,94.75,29.73C83.83,11.19,69.36,1,54,1S24.13,11.19,13.23,29.73L2.4,48.16c-2.62,5.06-.93,10.39,0,11.68L13.23,78.27C24.13,96.81,38.6,107,54,107S83.83,96.81,94.73,78.27l10.83-18.43a12.67,12.67,0,0,0,0-11.68ZM54,77.52C46.82,77.52,41,67,41,54s5.82-23.52,13-23.52S67,41,67,54,61.14,77.52,54,77.52ZM11.87,54l7.42-12.58c6.92-11.76,15.57-19.56,25-22.78C37.11,25.15,32.2,38.55,32.2,54s4.93,28.89,12.07,35.36c-9.41-3.18-18.06-11-25-22.78L11.87,54ZM88.69,66.58c-6.92,11.76-15.57,19.6-25,22.78C70.87,82.85,75.78,69.45,75.78,54S70.85,25.15,63.71,18.64c9.41,3.18,18.06,11,25,22.78L96.11,54Z" fill="none" stroke="#633cff" stroke-miterlimit="10" stroke-width="2"/>
        <path d="M54,45.85c-2.44,0-4.5,3.72-4.5,8.15s2.06,8.15,4.5,8.15,4.5-3.72,4.5-8.15-2.06-8.15-4.5-8.15Z" fill="none" stroke="#633cff" stroke-miterlimit="10" stroke-width="2"/>
      </g>
    </g>
  </g>
</svg>
